HIERARCHY
ROOT Hips
{
	OFFSET 0.00 0.00 0.00
	CHANNELS 6 Xposition Yposition Zposition Xrotation Yrotation Zrotation
	JOINT Spine
	{
		OFFSET 0.00000 6.11665 0.00000
		CHANNELS 3 Xrotation Yrotation Zrotation
		JOINT Head
		{
			OFFSET 0.00000 15.22556 0.00000
			CHANNELS 3 Xrotation Yrotation Zrotation
			End Site
			{
				OFFSET 0.00000 4.52755 0.00000
			}
		}
		JOINT LeftShoulder
		{
			OFFSET 0.00000 8.97765 0.00000
			CHANNELS 3 Xrotation Yrotation Zrotation
			JOINT LeftArm
			{
				OFFSET 7.11013 0.00000 0.00000
				CHANNELS 3 Xrotation Yrotation Zrotation
				JOINT LeftForeArm
				{
					OFFSET 10.39834 0.00000 0.00000
					CHANNELS 3 Yrotation Zrotation Xrotation
					JOINT LeftHand
					{
						OFFSET 8.88900 0.00000 0.00000
						CHANNELS 3 Xrotation Yrotation Zrotation
						JOINT LeftHandThumb1
						{
							OFFSET 0.00000 0.00000 0.00000
							CHANNELS 3 Xrotation Zrotation Yrotation
							End Site
							{
								OFFSET 0.00000 0.00000 3.93700
							}
						}
						End Site
						{
							OFFSET 3.93700 0.00000 0.00000
						}
					}
				}
			}
		}
		JOINT RightShoulder
		{
			OFFSET 0.00000 8.97765 0.00000
			CHANNELS 3 Xrotation Yrotation Zrotation
			JOINT RightArm
			{
				OFFSET -7.11013 0.00000 0.00000
				CHANNELS 3 Xrotation Yrotation Zrotation
				JOINT RightForeArm
				{
					OFFSET -10.39834 0.00000 0.00000
					CHANNELS 3 Yrotation Zrotation Xrotation
					JOINT RightHand
					{
						OFFSET -8.88900 0.00000 0.00000
						CHANNELS 3 Xrotation Yrotation Zrotation
						JOINT RightHandThumb1
						{
							OFFSET 0.00000 0.00000 0.00000
							CHANNELS 3 Xrotation Zrotation Yrotation
							End Site
							{
								OFFSET 0.00000 0.00000 3.93700
							}
						}
						End Site
						{
							OFFSET -3.93700 0.00000 0.00000
						}
					}
				}
			}
		}
	}
	JOINT LeftUpLeg
	{
		OFFSET 4.71176 0.00000 0.00000
		CHANNELS 3 Xrotation Yrotation Zrotation
		JOINT LeftLeg
		{
			OFFSET 0.00000 -15.51045 0.00000
			CHANNELS 3 Xrotation Yrotation Zrotation
			JOINT LeftFoot
			{
				OFFSET 0.00000 -14.85806 0.00000
				CHANNELS 3 Xrotation Yrotation Zrotation
				JOINT LeftToeBase
				{
					OFFSET 0.00000 -1.32744 4.95409
					CHANNELS 3 Xrotation Yrotation Zrotation
					End Site
					{
						OFFSET 0.00000 0.00000 2.95275
					}
				}
			}
		}
	}
	JOINT RightUpLeg
	{
		OFFSET -4.71176 0.00000 0.00000
		CHANNELS 3 Xrotation Yrotation Zrotation
		JOINT RightLeg
		{
			OFFSET 0.00000 -15.51045 0.00000
			CHANNELS 3 Xrotation Yrotation Zrotation
			JOINT RightFoot
			{
				OFFSET 0.00000 -14.85806 0.00000
				CHANNELS 3 Xrotation Yrotation Zrotation
				JOINT RightToeBase
				{
					OFFSET 0.00000 -1.32744 4.95409
					CHANNELS 3 Xrotation Yrotation Zrotation
					End Site
					{
						OFFSET 0.00000 0.00000 2.95275
					}
				}
			}
		}
	}
}
MOTION
Frames: 18
Frame Time: 0.008333
 7.1312 32.7632 -0.0109 -10.1851 -15.5994 -16.3789 9.1787 11.0590 9.3726 6.8222 -5.3454 3.9823 -10.6592 11.1090 28.3096 -5.3861 13.6486 -81.3328 -129.5820 -0.0000 -38.5686 -0.7694 -1.6021 -25.6576 33.1476 -0.0000 26.2537 8.3980 -21.1085 -23.0901 -6.8351 22.3723 84.4529 22.4632 0.0000 19.1021 -2.2773 17.4364 7.5597 32.8623 0.0000 -24.3270 11.4199 13.2694 1.9745 5.4543 -0.0000 -0.0000 -21.3932 26.3801 -1.8448 21.6647 0.0000 -0.0000 -86.6234 -23.5463 -11.1744 112.8891 -0.0000 -0.0000 37.0324 -25.1315 30.3439 8.8459 0.0000 0.0000
 7.1243 32.7529 -0.0089 -10.3276 -15.8103 -16.3229 9.2314 11.1847 9.2243 6.8828 -5.2102 3.9904 -10.6433 11.1269 28.3194 -5.4150 13.8252 -81.3095 -129.5634 -0.0000 -38.6551 -0.7386 -1.5317 -25.7470 33.1476 -0.0000 26.2537 8.4012 -21.0898 -23.0965 -6.8199 22.4130 84.4304 22.3607 0.0000 19.1306 -2.2892 17.4027 7.6131 32.8623 0.0000 -24.3270 11.6555 13.4572 1.8095 5.2864 0.0000 0.0000 -21.3392 26.4095 -1.7410 21.5253 0.0000 0.0000 -86.9194 -24.9585 -11.1187 112.9233 -0.0000 0.0000 37.1570 -25.1628 30.1235 8.4628 0.0000 -0.0000
 7.1193 32.7426 -0.0001 -10.4740 -16.0202 -16.2696 9.2569 11.3110 9.0766 7.0278 -5.1021 3.9974 -10.6181 11.1633 28.3459 -5.4244 13.9548 -81.3003 -129.5694 -0.0000 -38.6443 -0.6925 -1.4370 -25.7315 33.1476 -0.0000 26.2537 8.3943 -21.0143 -23.0832 -6.6868 22.3785 84.3517 22.3420 0.0000 19.2369 -2.3456 17.3195 7.8343 32.8623 0.0000 -24.3270 11.9218 13.6823 1.6420 5.0710 0.0000 0.0000 -21.2743 26.4367 -1.8214 21.5838 0.0000 -0.0000 -87.1887 -26.3581 -11.0373 113.0077 -0.0000 -0.0000 37.2451 -25.2426 30.4185 8.4041 -0.0000 0.0000
 7.1147 32.7329 0.0042 -10.5604 -16.2082 -16.2080 9.2301 11.3964 8.9438 7.1859 -4.9456 3.9909 -10.5890 11.2163 28.3575 -5.4322 14.0847 -81.2627 -129.5910 -0.0000 -38.5674 -0.6801 -1.4169 -25.6462 33.1476 -0.0000 26.2537 8.4524 -20.9706 -23.0320 -6.6183 22.3954 84.2630 22.3100 0.0000 19.2614 -2.3493 17.3411 7.8371 32.8623 0.0000 -24.3270 12.1044 13.8579 1.4970 4.9136 -0.0000 0.0000 -21.2089 26.4342 -1.9101 21.5075 -0.0000 -0.0000 -87.5135 -27.8090 -11.0496 113.0691 -0.0000 0.0000 37.4148 -25.3584 30.9907 7.9272 -0.0000 0.0000
 7.1138 32.7210 0.0156 -10.6767 -16.4086 -16.1283 9.2238 11.4893 8.7895 7.3433 -4.7923 4.0092 -10.5584 11.2946 28.3880 -5.4352 14.1956 -81.2397 -129.6040 -0.0000 -38.5314 -0.6785 -1.4178 -25.5779 33.1476 -0.0000 26.2537 8.5334 -20.9552 -23.0057 -6.6000 22.4425 84.1998 22.2708 0.0000 19.4201 -2.5492 17.3131 8.5085 32.8623 0.0000 -24.3270 12.3453 14.0151 1.3059 4.7285 -0.0000 -0.0000 -21.1533 26.4641 -1.9034 21.5415 0.0000 0.0000 -87.8341 -29.2626 -11.1151 113.1913 -0.0000 -0.0000 37.4800 -25.3369 31.2152 7.3644 0.0000 -0.0000
 7.1145 32.7093 0.0197 -10.7245 -16.6202 -16.0667 9.1462 11.5871 8.6928 7.4956 -4.6490 4.0012 -10.5401 11.3694 28.3972 -5.4046 14.2616 -81.1771 -129.6200 -0.0000 -38.5417 -0.6781 -1.4288 -25.3928 33.1476 -0.0000 26.2537 8.5518 -20.9331 -23.0074 -6.5598 22.4859 84.1395 22.1895 0.0000 19.2935 -2.4537 17.2877 8.2055 32.8623 0.0000 -24.3270 12.4820 14.1215 1.1485 4.5703 -0.0000 0.0000 -21.1309 26.5683 -1.8770 21.4161 -0.0000 -0.0000 -88.2325 -30.7492 -11.2828 113.2923 -0.0000 -0.0000 37.7129 -25.0343 31.3323 7.0838 0.0000 0.0000
 7.1128 32.6992 0.0245 -10.7910 -16.8052 -15.9806 9.0991 11.6730 8.5325 7.6717 -4.5119 4.0624 -10.5118 11.4466 28.4357 -5.4167 14.3613 -81.1390 -129.6318 -0.0000 -38.5523 -0.6537 -1.3760 -25.4129 33.1476 -0.0000 26.2537 8.5985 -20.9023 -22.9702 -6.5299 22.4902 84.0930 22.1061 0.0000 19.2718 -2.4147 17.2110 8.1111 32.8623 0.0000 -24.3270 12.6497 14.1549 0.9611 4.4077 0.0000 -0.0000 -21.0735 26.6828 -1.7544 21.3672 0.0000 0.0000 -88.5730 -32.2177 -11.3128 113.4171 -0.0000 0.0000 37.7512 -25.1553 31.6429 9.2205 0.0000 -0.0000
 7.1129 32.6864 0.0267 -10.8089 -16.9857 -15.8509 9.0146 11.7899 8.3341 7.8181 -4.4560 4.1584 -10.4945 11.5124 28.4971 -5.4528 14.4491 -81.1215 -129.6223 -0.0000 -38.5434 -0.6845 -1.4324 -25.5444 33.1476 -0.0000 26.2537 8.6207 -20.9075 -22.9245 -6.4533 22.4847 84.0559 22.0644 0.0000 19.2917 -2.4034 17.3086 8.0300 32.8623 0.0000 -24.3270 12.7580 14.2156 0.7623 4.2734 0.0000 0.0000 -21.0461 26.8188 -1.8709 21.4379 0.0000 -0.0000 -89.0159 -33.5892 -11.5079 113.5872 0.0000 -0.0000 37.8354 -24.8253 31.8337 8.5219 -0.0000 -0.0000
 7.1165 32.6743 0.0284 -10.8129 -17.1336 -15.7099 8.9304 11.8735 8.1416 7.9736 -4.3711 4.2379 -10.4695 11.5798 28.5463 -5.4812 14.5135 -81.1008 -129.6400 -0.0000 -38.5489 -0.6658 -1.3922 -25.5632 33.1476 -0.0000 26.2537 8.6785 -20.9273 -22.8816 -6.4263 22.4527 84.0312 22.0240 0.0000 19.3627 -2.5669 17.3197 8.5637 32.8623 0.0000 -24.3270 12.8383 14.2233 0.5652 4.1736 -0.0000 0.0000 -21.0017 26.9359 -1.9438 21.3977 0.0000 0.0000 -89.5087 -34.9768 -11.7740 113.7223 -0.0000 -0.0000 38.0662 -24.7980 32.0192 8.8243 -0.0000 0.0000
 7.1187 32.6637 0.0310 -10.8237 -17.2734 -15.6129 8.8377 11.9514 8.0190 8.1526 -4.2781 4.2674 -10.4440 11.6314 28.5625 -5.4913 14.5804 -81.0572 -129.6701 -0.0000 -38.7024 -0.6129 -1.2838 -25.5227 33.1476 -0.0000 26.2537 8.7395 -20.9364 -22.8501 -6.4102 22.3759 84.0059 21.9875 0.0000 19.2721 -2.3959 17.2305 8.0400 32.8623 0.0000 -24.3270 12.9378 14.2481 0.4059 4.0391 -0.0000 -0.0000 -20.9694 27.0441 -2.0044 21.4252 0.0000 -0.0000 -89.9666 -36.4106 -12.0506 113.8429 0.0000 0.0000 38.1153 -25.0218 32.1540 9.4392 -0.0000 -0.0000
 7.1183 32.6537 0.0374 -10.8271 -17.4215 -15.5024 8.7188 12.0723 7.8689 8.3463 -4.2455 4.3193 -10.4246 11.6466 28.5776 -5.4787 14.6128 -80.9570 -129.7002 -0.0000 -38.7959 -0.6332 -1.3310 -25.4460 33.1476 -0.0000 26.2537 8.8210 -20.9992 -22.7947 -6.4084 22.3636 83.9983 21.9210 0.0000 19.2626 -2.3423 17.2566 7.8509 32.8623 0.0000 -24.3270 13.0590 14.3266 0.2367 3.8620 -0.0000 -0.0000 -20.8907 27.0772 -2.0435 21.4009 -0.0000 0.0000 -90.4458 -37.6479 -12.3257 114.0303 -0.0000 0.0000 38.2181 -24.8224 32.2343 9.1429 -0.0000 0.0000
 7.1246 32.6440 0.0418 -10.8192 -17.5377 -15.3809 8.6217 12.1634 7.7353 8.4988 -4.2127 4.3436 -10.4248 11.6838 28.5922 -5.4851 14.6497 -80.9289 -129.6982 -0.0000 -38.8516 -0.6274 -1.3157 -25.4969 33.1476 -0.0000 26.2537 8.8723 -21.0531 -22.7532 -6.3854 22.2967 83.9785 21.9015 0.0000 19.2595 -2.3725 17.2650 7.9470 32.8623 0.0000 -24.3270 13.1603 14.3056 0.0550 3.7032 0.0000 -0.0000 -20.8294 27.1826 -2.0548 21.4425 -0.0000 -0.0000 -90.9482 -38.8648 -12.6789 114.1932 -0.0000 -0.0000 38.2242 -24.7991 32.2940 9.8876 0.0000 -0.0000
 7.1299 32.6360 0.0447 -10.8065 -17.6418 -15.2953 8.5144 12.2703 7.6551 8.6530 -4.1956 4.3528 -10.3924 11.6956 28.5827 -5.4842 14.6889 -80.8840 -129.7298 -0.0000 -39.0266 -0.5960 -1.2512 -25.4738 33.1476 -0.0000 26.2537 8.9178 -21.0777 -22.7124 -6.3068 22.2064 83.9392 21.9120 0.0000 19.2700 -2.3527 17.3175 7.8585 32.8623 0.0000 -24.3270 13.2354 14.2747 -0.0776 3.5699 -0.0000 -0.0000 -20.7721 27.2763 -2.1161 21.3896 -0.0000 0.0000 -91.4394 -40.1134 -13.0406 114.3281 -0.0000 -0.0000 38.0866 -24.9022 32.0841 9.4740 -0.0000 0.0000
 7.1343 32.6282 0.0457 -10.7831 -17.7335 -15.2030 8.4132 12.3749 7.5530 8.7830 -4.1995 4.4108 -10.3413 11.7134 28.6053 -5.5065 14.7164 -80.8697 -129.7454 -0.0000 -39.2043 -0.6158 -1.2928 -25.4718 33.1476 -0.0000 26.2537 8.9423 -21.0982 -22.6515 -6.2175 22.1039 83.8978 21.9209 0.0000 19.2714 -2.3690 17.2566 7.9392 32.8623 0.0000 -24.3270 13.3017 14.2526 -0.2136 3.4336 0.0000 0.0000 -20.6916 27.2984 -1.9980 21.1886 -0.0000 -0.0000 -91.9626 -41.2950 -13.4296 114.4119 0.0000 -0.0000 38.1478 -25.0454 32.1736 9.1800 0.0000 -0.0000
 7.1383 32.6216 0.0450 -10.7707 -17.8194 -15.1229 8.3439 12.4751 7.4584 8.8737 -4.1993 4.4729 -10.3393 11.7112 28.6421 -5.4687 14.7557 -80.8742 -129.7659 -0.0000 -39.3079 -0.6181 -1.2959 -25.5030 33.1476 -0.0000 26.2537 8.9682 -21.1030 -22.5956 -6.1358 22.0281 83.8650 21.9279 0.0000 19.2202 -2.4054 17.3094 8.0363 32.8623 0.0000 -24.3270 13.3714 14.2151 -0.3336 3.2928 0.0000 0.0000 -20.6829 27.4803 -2.1035 21.1357 -0.0000 -0.0000 -92.4425 -42.4200 -13.8034 114.4875 0.0000 -0.0000 38.0720 -25.0274 31.9467 8.8544 0.0000 -0.0000
 7.1436 32.6144 0.0426 -10.7299 -17.8894 -15.0205 8.2599 12.5700 7.3489 8.9589 -4.2290 4.5223 -10.3169 11.7078 28.6835 -5.4638 14.7994 -80.8800 -129.7896 -0.0000 -39.3803 -0.5995 -1.2511 -25.6051 33.1476 -0.0000 26.2537 9.0313 -21.1469 -22.5300 -6.1172 21.9921 83.8556 21.9144 0.0000 19.3248 -2.5855 17.4313 8.5722 32.8623 0.0000 -24.3270 13.3960 14.1682 -0.4631 3.1857 -0.0000 -0.0000 -20.6436 27.5755 -2.0595 21.1629 0.0000 -0.0000 -93.0017 -43.4543 -14.2418 114.5467 -0.0000 0.0000 37.9756 -24.9799 31.3371 9.3595 -0.0000 -0.0000
 7.1462 32.6078 0.0418 -10.7492 -17.9471 -14.9673 8.2482 12.6677 7.2670 9.0024 -4.2382 4.6076 -10.3309 11.6997 28.7386 -5.4083 14.7576 -80.8546 -129.8235 -0.0000 -39.3858 -0.6605 -1.3825 -25.5389 33.1476 -0.0000 26.2537 9.0491 -21.1336 -22.4817 -6.0568 21.9885 83.8409 21.9047 0.0000 19.1539 -2.4377 17.4110 8.0972 32.8623 0.0000 -24.3270 13.4726 14.1553 -0.5564 3.0889 -0.0000 -0.0000 -20.6130 27.6393 -2.1028 21.1753 0.0000 0.0000 -93.4566 -44.4705 -14.6578 114.5905 0.0000 0.0000 38.0290 -24.9748 31.8261 9.0916 0.0000 0.0000
 7.1492 32.6019 0.0368 -10.7432 -18.0066 -14.9158 8.2230 12.7752 7.1951 9.0261 -4.2759 4.6823 -10.3292 11.6951 28.8020 -5.3879 14.7495 -80.8927 -129.8436 -0.0000 -39.4168 -0.6838 -1.4314 -25.5379 33.1476 -0.0000 26.2537 9.0874 -21.1406 -22.4325 -6.0432 21.9717 83.8445 21.8778 0.0000 19.1245 -2.4575 17.3525 8.1885 32.8623 0.0000 -24.3270 13.4989 14.1507 -0.6331 3.0221 0.0000 -0.0000 -20.5981 27.6868 -2.1077 21.1363 0.0000 -0.0000 -93.9314 -45.4047 -15.0524 114.5967 0.0000 0.0000 38.0060 -24.9417 31.8546 9.4281 -0.0000 -0.0000
